<svg id="Layer_1" height="512" viewBox="0 0 512 512" width="512" xmlns="http://www.w3.org/2000/svg" data-name="Layer 1"><path d="m177.461 476h157.078a42.038 42.038 0 0 0 41.681-35.837l41.142-263.163h-322.723l41.131 263.086a42.055 42.055 0 0 0 41.691 35.914zm125.465-35.532 12.025-192.414a6 6 0 1 1 11.977.748l-12.028 192.414a6 6 0 0 1 -5.982 5.626c-.126 0-.253 0-.38-.012a6 6 0 0 1 -5.612-6.362zm-52.926-192.04a6 6 0 0 1 12 0v192.414a6 6 0 0 1 -12 0zm-59.314-5.989a6 6 0 0 1 6.362 5.615l12.026 192.414a6 6 0 0 1 -5.614 6.362c-.127.008-.254.012-.38.012a6 6 0 0 1 -5.982-5.626l-12.026-192.416a6 6 0 0 1 5.614-6.361z"/><path d="m445.69 156a8.976 8.976 0 0 0 -8.759-9h-361.862a9 9 0 0 0 0 18h361.862a8.975 8.975 0 0 0 8.759-9z"/><path d="m330 56.932c0-11.448-9.653-19.932-21.1-19.932h-105.8c-11.446 0-21.1 8.484-21.1 19.932v36.068h-106.931a9 9 0 0 0 0 18h361.862a9 9 0 0 0 0-18h-106.931zm-12 36.068h-124v-36.068c0-4.832 4.271-7.932 9.1-7.932h105.8c4.83 0 9.1 3.1 9.1 7.932z"/></svg>